<?xml version="1.0" encoding="UTF-8"?>
<svg version="1.1" xmlns="http://www.w3.org/2000/svg" width="48" height="48" viewBox="0 0 1024 1024">
<path d="M0 0 C0.81849426 -0.00526703 1.63698853 -0.01053406 2.48028564 -0.01596069 C18.7188045 -0.09671595 34.44397383 1.42279625 50.375 4.625 C52.0448999 4.95588623 52.0448999 4.95588623 53.74853516 5.29345703 C99.62525207 14.51145783 142.49560468 34.23048489 179.25 63.25 C180.15492188 63.96285156 181.05984375 64.67570312 181.9921875 65.41015625 C198.09910413 78.34588108 213.61732175 92.86994145 226.25 109.25 C227.0234375 110.21808594 227.796875 111.18617188 228.59375 112.18359375 C255.41850172 146.18141991 274.41383892 185.09622187 284.25 227.25 C284.41193848 227.93239746 284.57387695 228.61479492 284.74072266 229.31787109 C286.37972238 236.28775879 287.65948068 243.32115956 288.875 250.375 C289.06002075 251.43134644 289.06002075 251.43134644 289.2487793 252.5090332 C296.48454849 296.06886449 291.85726613 346.82833066 275.28955078 387.66870117 C274.3417638 390.02214215 273.42935567 392.38506852 272.53125 394.7578125 C258.87497482 430.41885804 238.52103379 464.88609977 210.91015625 491.58984375 C209.03154483 493.4127788 209.03154483 493.4127788 206.75 496.3125 C204.18409725 499.32743574 201.4761158 501.78524476 198.46875 504.34375 C196.1158468 506.36525839 193.8429498 508.45974758 191.5625 510.5625 C175.51828526 524.95866851 157.15781135 536.97156014 138.25 547.25 C136.64705078 548.17619141 136.64705078 548.17619141 135.01171875 549.12109375 C122.65977427 556.07343396 109.44636693 561.13697115 96.25 566.25 C94.8592627 566.79140625 94.8592627 566.79140625 93.44042969 567.34375 C86.41438106 569.99605148 79.28756693 571.95291928 72 573.75 C70.77998291 574.05188232 69.55996582 574.35376465 68.30297852 574.66479492 C57.0262817 577.39793928 45.72753626 579.56580824 34.25 581.25 C33.50186035 581.36714355 32.7537207 581.48428711 31.98291016 581.60498047 C-0.36848237 586.54765633 -35.06959629 583.73587145 -66.75 576.25 C-67.66201172 576.03472656 -68.57402344 575.81945312 -69.51367188 575.59765625 C-107.17582488 566.54646673 -142.14336813 550.68903359 -173.75 528.25 C-174.49926758 527.71842285 -175.24853516 527.1868457 -176.02050781 526.63916016 C-184.19183482 520.78860744 -191.83871871 514.59908613 -199.1484375 507.703125 C-201.34518404 505.63171835 -203.57823579 503.64569738 -205.875 501.6875 C-213.4408577 495.09282901 -220.21814844 487.95039517 -226.44921875 480.0859375 C-228.29177613 477.81480566 -230.17722682 475.63164141 -232.12109375 473.44921875 C-262.25248234 439.17693145 -282.16357714 393.11459628 -291.1875 348.8125 C-291.42235107 347.666604 -291.65720215 346.52070801 -291.89916992 345.34008789 C-295.14055599 328.32671126 -296.08968241 311.20158908 -296.01074219 293.91064453 C-295.9999753 291.11859585 -296.01074867 288.32718636 -296.0234375 285.53515625 C-296.03721379 269.33628259 -294.70297483 253.46982873 -291.5625 237.5625 C-291.34746826 236.47074463 -291.13243652 235.37898926 -290.91088867 234.25415039 C-280.46361981 183.13070738 -255.94398046 136.0666848 -220.87109375 97.58984375 C-218.94213665 95.46195185 -217.05963647 93.30279141 -215.1875 91.125 C-209.20922891 84.27891536 -202.67148596 78.12719158 -195.75 72.25 C-194.91210938 71.52296875 -194.07421875 70.7959375 -193.2109375 70.046875 C-180.60775765 59.28382885 -167.10782827 49.53717968 -152.75 41.25 C-152.08033203 40.86247559 -151.41066406 40.47495117 -150.72070312 40.07568359 C-121.88951454 23.47767453 -91.36031667 11.84729565 -58.75 5.25 C-58.05970703 5.10820312 -57.36941406 4.96640625 -56.65820312 4.8203125 C-37.86225874 1.0217041 -19.13392903 0.0624431 0 0 Z " fill="#040404" transform="translate(514.75,209.75)"/>
<path d="M0 0 C1.66067836 0.72993179 3.32231629 1.45768401 4.98486328 2.18334961 C8.37577149 3.66726261 11.76010079 5.16495549 15.140625 6.67236328 C19.88124584 8.77885806 24.65379857 10.80231062 29.4375 12.80859375 C31.60443798 13.72538094 33.77051351 14.64416428 35.93609619 15.56414795 C37.29416645 16.13882272 38.65395559 16.70945507 40.01556396 17.2756958 C55.04127024 23.54667949 60.97994077 30.11149726 67.125 44.875 C67.77832178 46.39699809 68.43364761 47.91813727 69.09082031 49.43847656 C70.8216502 53.45877387 72.52366182 57.49051006 74.21435547 61.52783203 C75.25243976 64.00582391 76.29580938 66.48154124 77.33984375 68.95703125 C78.9953301 72.88727955 80.624373 76.82786758 82.24621582 80.77209473 C83.04757127 82.68971527 83.88659421 84.59148409 84.72949219 86.49121094 C88.80883335 96.04795037 90.02996318 104.40146064 86.32350159 114.33854675 C84.97701713 117.66570089 83.49570465 120.92536462 82 124.1875 C81.3636032 125.61701434 80.72928313 127.04745482 80.09692383 128.47875977 C78.78226763 131.44850126 77.4554389 134.41242315 76.12255859 137.37402344 C74.13623867 141.81454287 72.25856741 146.29615456 70.39453125 150.7890625 C69.49181171 152.94031644 68.58675512 155.09056725 67.68048096 157.24032593 C67.11069734 158.60059866 66.54681255 159.96336038 65.98944092 161.32876587 C61.47631878 172.34514667 56.4703855 181.71751191 45.2734375 186.94921875 C43.02692834 187.84906219 40.76814973 188.71868817 38.5 189.5625 C37.27611572 190.04307861 36.05223145 190.52365723 34.79125977 191.01879883 C32.08566581 192.08032647 29.37371402 193.12287866 26.65576172 194.15234375 C21.65469574 196.04766496 16.67373078 197.99356728 11.69140625 199.9375 C4.80990742 202.61467304 -2.07545117 205.28149566 -8.97265625 207.91796875 C-9.71309677 208.20281128 -10.45353729 208.48765381 -11.21641541 208.78112793 C-24.33650961 213.77728347 -33.66954671 211.82052998 -46.25 206.1875 C-47.60324554 205.59862086 -48.95718203 205.01132726 -50.31176758 204.42553711 C-53.81361359 202.90446306 -57.30362198 201.3580882 -60.79046631 199.80297852 C-62.84069586 198.89027128 -64.89363241 197.98398825 -66.94775391 197.08007812 C-81.51394926 190.66908995 -81.51394926 190.66908995 -88.68896484 187.34814453 C-90.83448719 186.35610761 -92.99154959 185.38869907 -95.15869141 184.44482422 C-107.08211383 179.00140303 -110.53647392 171.26907189 -115.375 159.5 C-116.14324463 157.6555698 -116.91149271 155.81114104 -117.67987061 153.96676636 C-118.2210759 152.66470797 -118.7604739 151.36189705 -119.29815674 150.05838013 C-121.07451687 145.75901051 -122.90641142 141.48764589 -124.77636719 137.22817993 C-126.09045544 134.22684874 -127.38320409 131.21656984 -128.6730957 128.20477295 C-129.29923929 126.75451744 -129.93363331 125.30779146 -130.5769043 123.86505127 C-136.05464918 111.54588376 -138.2751504 101.17861175 -133.33984375 88.125 C-132.51283721 86.06930738 -131.65755732 84.02903081 -130.78289795 81.99316406 C-129.85826959 79.83596724 -128.96851173 77.66709849 -128.08642578 75.4921875 C-126.54664806 71.70698887 -124.97867097 67.9343827 -123.39819336 64.16601562 C-122.43861455 61.87765793 -121.48361385 59.58743135 -120.52929688 57.296875 C-119.27475346 54.28793575 -118.00727222 51.28491889 -116.73095703 48.28515625 C-115.48452088 45.35053172 -114.28856586 42.40179658 -113.12451172 39.43359375 C-108.28678147 27.31045217 -103.19649107 22.12226794 -91.328125 16.859375 C-87.94019206 15.41536544 -84.53414197 14.01805664 -81.125 12.625 C-79.32601995 11.8797468 -77.527357 11.13372771 -75.72900391 10.38696289 C-72.13549896 8.89860959 -68.53773801 7.42125417 -64.93652344 5.95166016 C-61.09816056 4.38293244 -57.27560375 2.78126129 -53.46154785 1.15444946 C-50.39949028 -0.1467576 -47.32414287 -1.41511544 -44.25 -2.6875 C-43.18813477 -3.14608398 -42.12626953 -3.60466797 -41.03222656 -4.07714844 C-25.68997617 -10.26770988 -14.2568206 -6.44447973 0 0 Z " fill="#FDFDFD" transform="translate(535.875,400.125)"/>
<path d="M0 0 C4.30463231 2.54763953 7.768275 5.51175859 11.30078125 9.03515625 C11.78145554 9.51391708 12.26212982 9.99267792 12.75737 10.48594666 C13.76900859 11.49623253 14.77815924 12.50901532 15.78491211 13.52416992 C17.29135773 15.04120906 18.80802425 16.54741686 20.32617188 18.05273438 C26.65803121 24.37514684 32.46997843 30.95266621 38 38 C38.53214111 38.66749268 39.06428223 39.33498535 39.61254883 40.02270508 C62.99903486 69.5872041 79.28178522 103.48279797 89.375 139.6875 C89.63812988 140.62053955 89.90125977 141.5535791 90.17236328 142.51489258 C93.20750358 153.73593078 93.20750358 153.73593078 91 157.875 C86.8055431 160.23438201 81.65703148 159.14504154 77.16015625 158.15234375 C75.79126284 157.75768362 74.42548222 157.35211458 73.0625 156.9375 C71.47795087 156.47756722 69.89331008 156.01795011 68.30859375 155.55859375 C67.45894043 155.30835449 66.60928711 155.05811523 65.73388672 154.80029297 C60.70829127 153.32914617 55.66650447 151.91548306 50.625 150.5 C49.55805908 150.19964844 48.49111816 149.89929688 47.3918457 149.58984375 C40.06062159 147.53930755 32.70307926 145.64630489 25.30810547 143.84155273 C19.41146593 142.38898901 13.57976837 140.76232565 7.75 139.0625 C0.14342204 136.84625895 -7.49449971 134.83183589 -15.1875 132.9375 C-22.83212538 131.05507603 -30.44014974 129.09620062 -38.01708984 126.95800781 C-43.34620314 125.45495483 -48.68640927 123.99883646 -54.03515625 122.56713867 C-56.24866032 121.97303444 -58.4608772 121.37411654 -60.671875 120.77075195 C-66.28639938 119.24159613 -71.90147297 117.77259382 -77.56640625 116.44140625 C-100.00939599 110.97398125 -120.81407737 101.64315181 -141.75274658 92.02722168 C-143.80777051 91.08786828 -145.87114921 90.17005623 -147.93701172 89.25488281 C-149.02900879 88.75053711 -150.12100586 88.24619141 -151.24609375 87.7265625 C-152.15931396 87.31229004 -153.07253418 86.89801758 -154.01342773 86.47119141 C-156 85 -156 85 -156.79711914 82.32958984 C-156.86406982 81.5608252 -156.93102051 80.79206055 -157 80 C-150.3834861 75.27624561 -143.43408195 71.4904131 -136.18719482 67.82394409 C-132.95040979 66.18552914 -129.72332403 64.52822984 -126.49609375 62.87109375 C-125.85109924 62.5402327 -125.20610474 62.20937164 -124.54156494 61.8684845 C-118.93452946 58.98414326 -113.39499626 55.98504638 -107.875 52.9375 C-98.67185369 47.86314783 -89.36032177 43.01891628 -80.01806641 38.20629883 C-73.04259156 34.60370618 -66.12382989 30.91756906 -59.25 27.125 C-48.83744649 21.38186732 -38.27885066 15.93537123 -27.69433594 10.51806641 C-26.42509639 9.867579 -25.15588979 9.2170273 -23.88671875 8.56640625 C-23.28037094 8.25642197 -22.67402313 7.94643768 -22.04930115 7.62705994 C-17.9117398 5.50126611 -13.85855393 3.26145722 -9.86132812 0.8828125 C-6.34884977 -0.78312686 -3.84138107 -0.56676114 0 0 Z " fill="#FDFDFD" transform="translate(690,294)"/>
<path d="M0 0 C0.33 0.33 0.66 0.66 1 1 C0.73451951 7.63701213 -1.37057773 13.49247318 -3.55078125 19.73046875 C-4.66238292 22.93796742 -5.66491161 26.16780848 -6.64453125 29.41796875 C-9.63584355 39.20867493 -12.94181422 48.89676433 -16.19485474 58.60287476 C-22.09632532 76.21572223 -27.95919455 93.84004827 -33.69244385 111.50842285 C-34.5543051 114.16226627 -35.4190589 116.81515033 -36.28466797 119.46777344 C-38.5626983 126.45450226 -40.8365895 133.44110788 -43.02098083 140.45777893 C-43.63131955 142.41311376 -44.24950703 144.36576422 -44.87084961 146.31762695 C-45.59243923 148.59098531 -46.29919707 150.86913984 -46.98657227 153.15307617 C-47.30037842 154.13123291 -47.61418457 155.10938965 -47.9375 156.1171875 C-48.32228516 157.36411377 -48.32228516 157.36411377 -48.71484375 158.63623047 C-50.51924636 161.95504241 -52.70669304 164.2098822 -56 166 C-58.99268014 166.69455898 -61.87486361 166.70127178 -64.9375 166.6640625 C-65.80250122 166.67088547 -66.66750244 166.67770844 -67.55871582 166.68473816 C-70.37345304 166.69486255 -73.18553121 166.66328216 -76 166.625 C-76.96107666 166.61890717 -77.92215332 166.61281433 -78.91235352 166.60653687 C-96.03598819 166.47916068 -112.26965048 164.80308362 -129 161 C-129.89428711 160.80245117 -130.78857422 160.60490234 -131.70996094 160.40136719 C-137.21347025 159.1571142 -142.6092486 157.66260868 -148 156 C-148.92441895 155.71785645 -149.84883789 155.43571289 -150.80126953 155.14501953 C-214.68553164 135.3974543 -214.68553164 135.3974543 -229 117 C-229 113.5625 -229 113.5625 -228 110 C-224.19882087 106.39968346 -219.82742657 104.19312465 -215.19140625 101.875 C-214.05995934 101.29991447 -214.05995934 101.29991447 -212.90565491 100.71321106 C-211.29492668 99.89488076 -209.68296665 99.07897126 -208.06988525 98.26528931 C-203.84079026 96.13118221 -199.62145399 93.97798228 -195.40234375 91.82421875 C-194.57371826 91.40154221 -193.74509277 90.97886566 -192.89135742 90.54338074 C-186.74560854 87.40075578 -180.6617269 84.16025246 -174.625 80.8125 C-165.34020355 75.66909093 -155.92378945 70.80603353 -146.47964478 65.96420288 C-137.12468809 61.16550214 -127.85723885 56.23854157 -118.65234375 51.15625 C-112.03573914 47.52009792 -105.32192252 44.12482334 -98.54736328 40.79418945 C-91.28654539 37.20117034 -84.18698554 33.33810613 -77.12304688 29.37304688 C-62.54242205 21.27269975 -47.29301768 15.21113452 -31.72583008 9.29931641 C-28.27665721 7.9863561 -24.83466876 6.65561872 -21.39257812 5.32421875 C-19.19572599 4.4858948 -16.99847473 3.64861585 -14.80078125 2.8125 C-13.26179924 2.21429443 -13.26179924 2.21429443 -11.69172668 1.60400391 C-10.73940659 1.24612793 -9.78708649 0.88825195 -8.8059082 0.51953125 C-7.55472954 0.04157104 -7.55472954 0.04157104 -6.27827454 -0.44604492 C-3.75208622 -1.06027943 -2.4147853 -0.90098343 0 0 Z " fill="#FDFDFD" transform="translate(584,608)"/>
<path d="M0 0 C2.55419922 0.3527832 2.55419922 0.3527832 4.10449219 1.84033203 C4.53906738 2.55213623 4.97364258 3.26394043 5.42138672 3.99731445 C5.92637695 4.82312012 6.43136719 5.64892578 6.95166016 6.49975586 C9.66399818 11.32857702 12.22980423 16.22355912 14.72998047 21.16531372 C16.36942909 24.40367804 18.02854525 27.63194052 19.68701172 30.8605957 C20.18361298 31.82839714 20.18361298 31.82839714 20.69024658 32.81575012 C23.5604331 38.39564678 26.5300194 43.91729122 29.55419922 49.4152832 C34.06419958 57.61729366 38.51550347 65.84853314 42.92919922 74.1027832 C43.56700071 75.29454526 44.20485881 76.48627702 44.84277344 77.67797852 C47.35540781 82.37237822 49.86731015 87.06716688 52.37646484 91.76342773 C59.1995792 104.52787145 66.09921589 117.23518296 73.29296875 129.79541016 C82.42279477 145.77627405 82.42279477 145.77627405 81.55419922 152.3527832 C79.35538439 156.67032357 76.27949544 160.09156475 72.99169922 163.6027832 C72.45794678 164.17561035 71.92419434 164.7484375 71.37426758 165.33862305 C66.68625692 170.31339846 61.74443557 174.90400919 56.55419922 179.3527832 C55.60416016 180.19067383 54.65412109 181.02856445 53.67529297 181.8918457 C34.40952067 198.73481049 12.74298796 212.5649554 -10.44580078 223.3527832 C-11.0680957 223.64459473 -11.69039062 223.93640625 -12.33154297 224.23706055 C-28.14231875 231.58624939 -44.48015843 237.56866622 -61.38330078 241.8527832 C-62.38361328 242.10809814 -63.38392578 242.36341309 -64.41455078 242.62646484 C-69.49824583 243.85718592 -74.2146418 244.96575523 -79.44580078 244.3527832 C-82.01083856 240.50522654 -82.09966581 237.79639657 -81.44580078 233.3527832 C-80.57479523 230.37984691 -79.60457246 227.4595042 -78.57421875 224.53833008 C-76.83734295 219.60737929 -75.36579953 214.65065521 -74.00830078 209.6027832 C-72.34074179 203.44639953 -70.53067932 197.35979211 -68.57080078 191.2902832 C-66.13661919 183.73472314 -63.94070482 176.12723112 -61.82080078 168.4777832 C-59.10152747 158.66659829 -56.24347618 148.92557695 -53.11767578 139.2355957 C-50.22221522 130.21811006 -47.52397047 121.17159611 -45.00830078 112.0402832 C-42.51231991 102.98535397 -39.82926713 94.01690353 -36.91943359 85.08642578 C-35.63606102 81.13866014 -34.37461659 77.20358842 -33.31689453 73.1887207 C-30.08877593 60.99243819 -25.06570587 49.64789405 -19.9803009 38.12203979 C-17.90303565 33.41159721 -15.86667657 28.68465349 -13.84423828 23.95043945 C-12.95815556 21.88194238 -12.07158039 19.81365715 -11.18481445 17.74545288 C-10.61115634 16.40582989 -10.03871735 15.06568415 -9.4675293 13.7250061 C-8.67059835 11.85678279 -7.86694723 9.99143042 -7.06298828 8.1262207 C-6.60520996 7.05807129 -6.14743164 5.98992188 -5.67578125 4.8894043 C-4.17975761 1.80411538 -3.47305098 0.50095415 0 0 Z " fill="#FDFDFD" transform="translate(640.44580078125,524.647216796875)"/>
<path d="M0 0 C0.88257477 -0.00630432 1.76514954 -0.01260864 2.67446899 -0.019104 C4.10090225 -0.01303131 4.10090225 -0.01303131 5.55615234 -0.00683594 C6.55101654 -0.00874939 7.54588074 -0.01066284 8.57089233 -0.01263428 C10.68414563 -0.01399595 12.79740729 -0.01030077 14.91064453 -0.00195312 C18.08174528 0.00858846 21.25225862 -0.00176592 24.42333984 -0.01464844 C41.14706388 -0.02754076 57.22457585 1.33548536 73.64208984 4.57128906 C74.74738037 4.78640137 75.8526709 5.00151367 76.99145508 5.22314453 C85.74186269 6.98358157 94.0945182 9.31516199 102.51708984 12.25878906 C103.95154574 12.73277878 105.3864728 13.20534413 106.82177734 13.67675781 C120.44994696 18.21708025 133.69907985 23.41666224 146.3984375 30.14208984 C148.79723177 31.40644626 151.20929344 32.64338198 153.62255859 33.87988281 C155.3586519 34.7762125 157.0943353 35.67333664 158.82958984 36.57128906 C159.6489502 36.99200684 160.46831055 37.41272461 161.3125 37.84619141 C162.07739746 38.24660645 162.84229492 38.64702148 163.63037109 39.05957031 C164.3088208 39.41188721 164.98727051 39.7642041 165.6862793 40.12719727 C167.6476671 41.33949657 169.05995477 42.46929092 170.51708984 44.25878906 C170.95458984 47.69628906 170.95458984 47.69628906 170.51708984 51.25878906 C167.79366806 54.5270529 164.77985114 56.42669497 161.06396484 58.43847656 C159.98211914 59.03031738 158.90027344 59.6221582 157.78564453 60.23193359 C156.62452148 60.8595459 155.46339844 61.4871582 154.26708984 62.13378906 C151.80639694 63.47846304 149.34899383 64.82908192 146.89208984 66.18066406 C145.95982574 66.69265854 145.95982574 66.69265854 145.00872803 67.21499634 C139.03585245 70.50429733 133.14436301 73.92679881 127.26708984 77.38378906 C118.69984843 82.41507585 110.08821438 87.35618076 101.4309082 92.23071289 C93.88108376 96.4829569 86.35104632 100.76912798 78.82958984 105.07128906 C78.24359009 105.40642517 77.65759033 105.74156128 77.05383301 106.08685303 C74.06825867 107.79440029 71.08289928 109.50232283 68.09765625 111.21044922 C64.56496618 113.23165201 61.03137762 115.25127967 57.49755859 117.27050781 C56.92111099 117.5999942 56.34466339 117.92948059 55.75074768 118.26895142 C52.84394883 119.93023342 49.93632166 121.59003506 47.02709961 123.24707031 C41.12453764 126.61119702 35.23841511 130.00011955 29.37646484 133.43457031 C14.7993215 141.95472232 0.09847168 149.70386291 -15.48291016 156.25878906 C-16.17904419 156.55241333 -16.87517822 156.8460376 -17.59240723 157.14855957 C-22.31319735 159.13632781 -27.04392031 161.09817607 -31.78610229 163.03436279 C-33.36592027 163.68000766 -34.94433526 164.32909699 -36.52127075 164.98175049 C-38.73629989 165.89506206 -40.95779285 166.79030005 -43.18212891 167.68066406 C-44.1774614 168.09531418 -44.1774614 168.09531418 -45.19290161 168.51834106 C-49.013833 170.0209171 -51.53716143 170.53523006 -55.48291016 169.25878906 C-55.91902415 162.12704262 -54.32351113 156.19107722 -52.29541016 149.38378906 C-51.64808258 147.14556338 -51.00094824 144.9072818 -50.35400391 142.66894531 C-50.03415527 141.57598145 -49.71430664 140.48301758 -49.38476562 139.35693359 C-48.17138205 135.18859639 -47.01046679 131.00676584 -45.85791016 126.82128906 C-45.4570851 125.3772185 -45.05604596 123.93320735 -44.65478516 122.48925781 C-43.86993872 119.65950832 -43.08922093 116.82865825 -42.31103516 113.99707031 C-40.28345856 106.63621201 -38.20680196 99.294037 -36.04467773 91.97143555 C-33.01651136 81.70983293 -30.15350165 71.41547811 -27.42041016 61.07128906 C-24.4623356 49.87974178 -21.40597016 38.72723174 -18.16210938 27.61523438 C-17.47094893 25.21729023 -16.80466463 22.81348021 -16.14306641 20.40722656 C-15.71473588 18.87856535 -15.28635309 17.34991878 -14.85791016 15.82128906 C-14.58491089 14.80071411 -14.58491089 14.80071411 -14.30639648 13.75952148 C-12.91312159 8.85986903 -11.13215113 3.90400094 -6.63174438 1.10919189 C-4.25958101 0.17040638 -2.54437889 0.0052458 0 0 Z " fill="#FDFDFD" transform="translate(491.48291015625,228.7412109375)"/>
<path d="M0 0 C5.90034869 -0.33086067 10.59142156 0.82578802 16.1875 2.625 C17.97257594 3.17994589 19.75773453 3.73462599 21.54296875 4.2890625 C22.44966309 4.57426758 23.35635742 4.85947266 24.29052734 5.15332031 C28.5156695 6.47362965 32.75796281 7.73526464 37 9 C38.67066256 9.50100325 40.34123535 10.00230597 42.01171875 10.50390625 C45.30561533 11.49213952 48.599911 12.47902594 51.89453125 13.46484375 C66.60257076 17.8677382 81.2894312 22.33934416 95.97265625 26.82421875 C105.30027948 29.67104069 114.63228891 32.49507195 123.99487305 35.22485352 C129.40899978 36.8097791 134.79205286 38.48479278 140.16894531 40.19140625 C145.74398594 41.95048048 151.36111078 43.50718101 157.01171875 45.0078125 C162.48486545 46.82504029 165.75152069 49.2168492 169 54 C169.48583984 56.86474609 169.48583984 56.86474609 169.4609375 60.0234375 C169.45884277 61.19696777 169.45674805 62.37049805 169.45458984 63.57958984 C169.4283252 64.8320752 169.40206055 66.08456055 169.375 67.375 C169.35775879 68.67775879 169.34051758 69.98051758 169.32275391 71.32275391 C168.79239939 100.40682628 164.61607952 129.45292827 155 157 C154.71431152 157.8254834 154.42862305 158.6509668 154.13427734 159.50146484 C137.69067254 206.30932746 137.69067254 206.30932746 124 220 C118.36005089 220.63676845 118.36005089 220.63676845 116 220 C111.69713219 215.71491263 109.04238859 209.9604261 106.125 204.6875 C101.53350368 196.4753591 96.88124822 188.30537799 92.125 180.1875 C87.24379261 171.84874239 82.3877435 163.49628014 77.5625 155.125 C76.62772827 153.50392334 76.62772827 153.50392334 75.67407227 151.85009766 C72.53909168 146.41149468 69.40814051 140.97060184 66.28125 135.52734375 C60.60145667 125.64892296 54.89619184 115.7890846 49.06835938 105.99707031 C47.0490412 102.60237427 45.03952597 99.20201921 43.03125 95.80078125 C40.39685529 91.34027203 37.72604568 86.90469075 35.03125 82.48046875 C23.67351976 63.55184958 15.16260494 43.67298172 6.91003418 23.23187256 C6.0161797 21.03968095 5.09986211 18.85823627 4.17675781 16.67822266 C3.62039485 15.34409548 3.06407717 14.00994941 2.5078125 12.67578125 C2.02199707 11.52634033 1.53618164 10.37689941 1.03564453 9.19262695 C-0.02382081 5.92656654 -0.20682867 3.40816274 0 0 Z " fill="#FDFDFD" transform="translate(619,430)"/>
<path d="M0 0 C4.98847004 0.15295747 9.67645522 1.5356125 14.46484375 2.84765625 C15.469104 3.11578125 16.47336426 3.38390625 17.50805664 3.66015625 C25.69628422 5.86758898 33.82772877 8.25986566 41.95703125 10.67358398 C50.09349959 13.06763413 58.28826409 15.14470589 66.52587891 17.15844727 C72.84245809 18.71144128 79.07596504 20.42472285 85.29760742 22.31860352 C93.18291731 24.6886185 101.16755481 26.68394569 109.1496582 28.69897461 C114.6671937 30.10377222 120.12850941 31.59526896 125.5625 33.296875 C131.89402555 35.27910392 138.28067698 36.9243326 144.71484375 38.53515625 C149.49023347 39.76809899 154.25992915 41.02175163 159.02734375 42.28515625 C160.08115234 42.56278809 161.13496094 42.84041992 162.22070312 43.12646484 C180.53532858 48.05441476 197.46114636 55.44283918 214.63716125 63.36698914 C218.27472453 65.04249772 221.92255819 66.68406411 225.60058594 68.26904297 C226.70568008 68.745485 226.70568008 68.745485 227.83309937 69.23155212 C229.23591966 69.83344329 230.64048592 70.43128661 232.04702759 71.02442932 C234.81454532 72.21154889 236.87663193 73.13444443 239.02734375 75.28515625 C239.15234375 77.91015625 239.15234375 77.91015625 239.02734375 80.28515625 C198.21421045 100.23583308 198.21421045 100.23583308 183.44262695 107.26513672 C175.88252482 110.86598381 168.3468423 114.51612025 160.81387329 118.17327881 C133.03880939 131.65749216 133.03880939 131.65749216 120.33935547 137.70214844 C117.94210786 138.84793596 115.54808098 139.99925441 113.15673828 141.15722656 C109.74776505 142.80779568 106.33239778 144.44446545 102.91293335 146.07318115 C101.58758731 146.70729857 100.26445806 147.34607322 98.9437561 147.98980713 C97.09985297 148.88755232 95.2484688 149.76773611 93.39453125 150.64453125 C92.33347168 151.15467773 91.27241211 151.66482422 90.17919922 152.19042969 C86.57930632 153.44077204 83.81350793 153.59192011 80.02734375 153.28515625 C77.54296875 151.703125 77.54296875 151.703125 75.27734375 149.47265625 C74.42785156 148.64894531 73.57835937 147.82523438 72.703125 146.9765625 C71.82011719 146.08839844 70.93710937 145.20023438 70.02734375 144.28515625 C69.11339844 143.40730469 68.19945312 142.52945313 67.2578125 141.625 C61.92750395 136.44379099 57.00859786 131.08545007 52.390625 125.26171875 C50.7069988 123.1411846 49.00537585 121.06199539 47.2578125 118.99609375 C27.82628625 95.78531945 14.60614779 68.45215092 4.02734375 40.28515625 C3.67889404 39.36557129 3.33044434 38.44598633 2.97143555 37.49853516 C0.5690582 31.04820648 -1.45929748 24.5454826 -3.28515625 17.91015625 C-3.56166016 16.95238281 -3.83816406 15.99460937 -4.12304688 15.0078125 C-4.37892578 14.08097656 -4.63480469 13.15414062 -4.8984375 12.19921875 C-5.12958252 11.37373535 -5.36072754 10.54825195 -5.59887695 9.69775391 C-6.03013831 6.91413228 -5.77642312 4.97685384 -4.97265625 2.28515625 C-2.97265625 0.28515625 -2.97265625 0.28515625 0 0 Z " fill="#FDFDFD" transform="translate(247.97265625,550.71484375)"/>
<path d="M0 0 C4.08922205 0.55447079 4.84494129 1.32435461 7.2878418 4.46582031 C10.29858435 8.84145382 12.83735884 13.49843025 15.4375 18.125 C16.77596704 20.47684938 18.11624636 22.82750074 19.4609375 25.17578125 C19.97963913 26.08214577 19.97963913 26.08214577 20.50881958 27.00682068 C24.24563231 33.51194863 28.14662316 39.91414122 32.0625 46.3125 C37.97578142 55.98421869 43.78482443 65.70986783 49.5 75.5 C54.67003811 84.35513487 59.87175432 93.18804992 65.16357422 101.97119141 C70.04726273 110.08192843 74.8848756 118.22004218 79.68896484 126.37817383 C82.78859572 131.63773287 85.9059137 136.88061366 89.140625 142.05859375 C97.96212455 156.29807399 104.57379289 171.17973541 110.91558838 186.63012695 C111.68316641 188.48950235 112.46127877 190.34407166 113.24365234 192.19726562 C114.69823472 195.64634291 116.13407293 199.10252084 117.5625 202.5625 C117.99780029 203.59673096 118.43310059 204.63096191 118.8815918 205.6965332 C119.26871338 206.65390381 119.65583496 207.61127441 120.0546875 208.59765625 C120.39612793 209.42789307 120.73756836 210.25812988 121.08935547 211.11352539 C121.79066206 213.91159557 121.4438749 215.74410848 120.6875 218.5 C117.1665628 219.72068771 114.93391655 219.26417208 111.390625 218.2421875 C110.35752197 217.94884521 109.32441895 217.65550293 108.26000977 217.35327148 C107.16358154 217.03044189 106.06715332 216.7076123 104.9375 216.375 C103.24548462 215.88785522 103.24548462 215.88785522 101.51928711 215.39086914 C91.4360139 212.47109704 81.39620039 209.44016022 71.453125 206.0703125 C62.53371614 203.04850636 53.59105464 200.28964228 44.52050781 197.75463867 C37.93990206 195.89967433 31.46613912 193.81066019 24.99511719 191.60717773 C19.55847332 189.76411433 14.0822305 188.15867076 8.55078125 186.62109375 C2.75628335 184.97413878 -2.9611809 183.07024777 -8.69042969 181.21166992 C-13.49723223 179.66591905 -18.3072429 178.20226818 -23.18359375 176.890625 C-24.128396 176.63458496 -25.07319824 176.37854492 -26.04663086 176.11474609 C-27.83941726 175.63525604 -29.63570643 175.16860464 -31.43579102 174.71728516 C-37.40559622 173.11613373 -41.8323606 171.12543349 -45.44970703 165.83764648 C-46.70336223 162.44100005 -46.63686595 159.10227723 -46.6484375 155.52734375 C-46.65681641 154.74059265 -46.66519531 153.95384155 -46.67382812 153.14324951 C-46.69347225 150.5744653 -46.69338619 148.00634739 -46.6875 145.4375 C-46.68695618 144.55897369 -46.68641235 143.68044739 -46.68585205 142.77529907 C-46.64196322 127.35645109 -45.39457287 112.64062434 -42.3125 97.5 C-41.99104004 95.87215576 -41.99104004 95.87215576 -41.66308594 94.21142578 C-38.03311804 76.18047173 -22.29535738 3.36533696 0 0 Z " fill="#FDFDFD" transform="translate(283.3125,355.5)"/>
</svg>
