<svg xmlns="http://www.w3.org/2000/svg" viewBox="0 0 48 48">
  <defs>
    <style>
      .a, .b {
        fill: none;
        stroke: #231815;
        stroke-width: 2px;
      }

      .b {
        stroke-linecap: round;
        stroke-linejoin: round;
      }
    </style>
  </defs>
  <g>
    <path class="a" d="M24,28.45a4.37,4.37,0,1,1,4.38-4.37A4.37,4.37,0,0,1,24,28.45Z"/>
    <path class="b" d="M34,22.28l3-2.5-2.85-4.93-3.73,1.41a10.1,10.1,0,0,0-2.93-1.66l-.64-4h-5.7l-.64,4a10,10,0,0,0-2.93,1.66l-3.73-1.41L11,19.78l3.05,2.5a10.58,10.58,0,0,0,0,3.46l-3,2.48,2.85,4.93,3.6-1.36a10.19,10.19,0,0,0,3.08,1.79l.62,3.79h5.7l.62-3.79a10.34,10.34,0,0,0,3.08-1.8l3.6,1.37L37,28.22l-3-2.48A8.24,8.24,0,0,0,34,22.28Z"/>
  </g>
</svg>
